<?xml version="1.0" encoding="UTF-8"?>
<svg width="484px" height="414px" viewBox="0 0 484 414" version="1.1" xmlns="http://www.w3.org/2000/svg" xmlns:xlink="http://www.w3.org/1999/xlink">
    <title>FullColor_1280x1024</title>
    <defs>
        <linearGradient x1="-0.00317198503%" y1="0%" x2="-0.00317198503%" y2="99.9909783%" id="linearGradient-1">
            <stop stop-color="#17EAD9" offset="0%"></stop>
            <stop stop-color="#6078EA" offset="100%"></stop>
        </linearGradient>
    </defs>
    <g id="Page-1-Copy-5" stroke="none" stroke-width="1" fill="none" fill-rule="evenodd">
        <g id="Artboard" transform="translate(-202.000000, -180.000000)" fill="url(#linearGradient-1)" fill-rule="nonzero">
            <g id="FullColor_1280x1024" transform="translate(202.000000, 180.000000)">
                <g id="Group" transform="translate(242.000000, 207.000000) scale(-1, 1) rotate(-180.000000) translate(-242.000000, -207.000000) translate(0.000000, 0.000000)">
                    <path d="M446.770412,21.7875079 L269.775576,21.7875079 L388.127285,124.755271 L446.770412,21.7875079 Z M95.8143754,124.789508 L214.206001,21.7875079 L37.201954,21.7875079 L95.8143754,124.789508 Z M34.3218423,207 L90.1953941,255.611043 L117.881926,207 L90.1892537,158.382732 L34.3218423,207 Z M37.2111654,392.212492 L214.202931,392.212492 L95.8542918,289.247842 L37.2111654,392.212492 Z M388.167202,289.210492 L269.778646,392.212492 L446.779623,392.212492 L388.167202,289.210492 Z M353.691835,185.212492 L377.193301,143.953177 L284.028751,62.8974228 L353.691835,185.212492 Z M200.011165,62.8258352 L106.74836,143.984302 L130.255966,185.293417 L200.011165,62.8258352 Z M283.988835,351.171052 L377.245499,270.015698 L353.737892,228.706583 L283.988835,351.171052 Z M130.302024,228.787508 L106.800559,270.049935 L199.971249,351.111915 L130.302024,228.787508 Z M241.901745,381.489926 L341.333148,206.909738 L242.095185,32.5131867 L142.660712,207.090262 L241.901745,381.489926 Z M449.659735,207 L393.789253,158.39207 L366.102722,207 L393.792324,255.617268 L449.659735,207 Z M482.66127,207 L404.723238,274.80895 L484,414 L0,414 L79.276762,274.812062 L1.33565946,207 L79.276762,139.19105 L0,0 L484,0 L404.723238,139.194163 L482.66127,207 Z" id="Shape"></path>
                </g>
            </g>
        </g>
    </g>
</svg>